<mxfile host="app.diagrams.net" modified="2024-05-30T11:57:34.436Z" agent="Mozilla/5.0 (Windows NT 10.0; Win64; x64) AppleWebKit/537.36 (KHTML, like Gecko) Chrome/125.0.0.0 Safari/537.36" version="24.4.10" etag="ec4qtpbIxoscMSc-XuVs" type="github">
  <diagram name="第 1 页" id="es4CsB7E2n1uye905xUd">
    <mxGraphModel>
      <root>
        <mxCell id="0" />
        <mxCell id="1" parent="0" />
      </root>
    </mxGraphModel>
  </diagram>
</mxfile>
